<?xml version="1.0" encoding="UTF-8" standalone="no"?>
<!-- Created with Inkscape (http://www.inkscape.org/) -->

<svg
   xmlns:dc="http://purl.org/dc/elements/1.1/"
   xmlns:cc="http://creativecommons.org/ns#"
   xmlns:rdf="http://www.w3.org/1999/02/22-rdf-syntax-ns#"
   xmlns:svg="http://www.w3.org/2000/svg"
   xmlns="http://www.w3.org/2000/svg"
   xmlns:sodipodi="http://sodipodi.sourceforge.net/DTD/sodipodi-0.dtd"
   xmlns:inkscape="http://www.inkscape.org/namespaces/inkscape"
   width="728"
   height="90"
   id="svg5113"
   version="1.1"
   inkscape:version="0.91 r13725"
   viewBox="0 0 728 90"
   sodipodi:docname="f-bay.svg">
  <defs
     id="defs5115" />
  <sodipodi:namedview
     id="base"
     pagecolor="#ffffff"
     bordercolor="#666666"
     borderopacity="1.0"
     inkscape:pageopacity="0.0"
     inkscape:pageshadow="2"
     inkscape:zoom="0.75"
     inkscape:cx="433.33333"
     inkscape:cy="-61.666667"
     inkscape:document-units="px"
     inkscape:current-layer="layer1"
     showgrid="false"
     inkscape:window-width="1280"
     inkscape:window-height="703"
     inkscape:window-x="18"
     inkscape:window-y="0"
     inkscape:window-maximized="0" />
  <metadata
     id="metadata5118">
    <rdf:RDF>
      <cc:Work
         rdf:about="">
        <dc:format>image/svg+xml</dc:format>
        <dc:type
           rdf:resource="http://purl.org/dc/dcmitype/StillImage" />
        <dc:title></dc:title>
      </cc:Work>
    </rdf:RDF>
  </metadata>
  <g
     id="layer1"
     inkscape:label="Layer 1"
     inkscape:groupmode="layer">
    <g
       style="font-style:normal;font-weight:normal;font-size:80px;line-height:125%;font-family:sans-serif;letter-spacing:0px;word-spacing:-0.04px;fill:#000000;fill-opacity:1;stroke:none;stroke-width:2;stroke-linecap:butt;stroke-linejoin:miter;stroke-miterlimit:4;stroke-dasharray:none;stroke-opacity:1"
       id="text5661">
      <path
         d="m 153.81666,9.97 35.37,0 0,15.75 -16.2,0 0,6.66 15.93,0 0,14.94 -15.93,0 0,22.68 -19.17,0 0,-60.03 z m 11.34,52.83 0,-21.87 17.1,0 0,-2.16 -17.1,0 0,-19.44 18,0 0,-2.16 -20.34,0 0,45.63 2.34,0 z"
         style="font-style:normal;font-variant:normal;font-weight:normal;font-stretch:normal;font-size:90px;font-family:Phosphate;-inkscape-font-specification:Phosphate;fill:none;stroke:#000000;stroke-width:2;stroke-linecap:square;stroke-linejoin:miter;stroke-miterlimit:4;stroke-dasharray:none;stroke-opacity:1"
         id="path7081" />
      <path
         d="m 193.7858,32.47 23.76,0 0,15.03 -23.76,0 0,-15.03 z m 18.45,8.55 0,-2.07 -12.96,0 0,2.07 12.96,0 z"
         style="font-style:normal;font-variant:normal;font-weight:normal;font-stretch:normal;font-size:90px;font-family:Phosphate;-inkscape-font-specification:Phosphate;fill:none;stroke:#000000;stroke-width:2;stroke-linecap:square;stroke-linejoin:miter;stroke-miterlimit:4;stroke-dasharray:none;stroke-opacity:1"
         id="path7083" />
      <path
         d="m 223.07447,9.97 23.49,0 q 4.5,0 8.19,1.08 3.78,0.99 6.39,3.06 2.7,1.98 4.14,5.04 1.53,2.97 1.53,7.02 0,2.88 -0.72,4.95 -0.72,1.98 -1.53,3.33 -0.99,1.62 -2.25,2.7 1.98,1.26 3.6,3.24 1.35,1.71 2.43,4.32 1.17,2.61 1.17,6.39 0,4.32 -1.53,7.83 -1.53,3.51 -4.41,6.03 -2.79,2.43 -6.93,3.78 -4.05,1.26 -9.09,1.26 l -24.48,0 0,-60.03 z m 20.7,45.9 q 6.84,0 6.84,-5.22 0,-5.22 -6.84,-5.22 l -2.16,0 0,10.44 2.16,0 z m 4.5,-27.63 q 0,-4.14 -4.5,-4.14 l -2.16,0 0,8.28 2.16,0 q 4.5,0 4.5,-4.14 z m -3.24,34.56 q 7.92,0 11.7,-3.42 3.78,-3.42 3.78,-9.09 0,-3.69 -1.62,-5.85 -1.53,-2.25 -3.33,-3.51 -2.25,-1.44 -4.95,-1.98 2.16,-0.63 3.87,-1.98 1.53,-1.17 2.7,-3.15 1.26,-2.07 1.26,-5.22 0,-5.67 -3.6,-8.55 -3.6,-2.88 -9.81,-2.88 l -12.96,0 0,45.63 12.96,0 z m -10.62,-2.16 0,-20.61 10.53,0 q 2.79,0 5.13,0.63 2.43,0.54 4.23,1.8 1.8,1.17 2.79,3.15 1.08,1.98 1.08,4.68 0,5.49 -3.69,7.92 -3.6,2.43 -9.54,2.43 l -10.53,0 z m 0,-22.77 0,-18.54 10.62,0 q 5.85,0 8.37,2.61 2.61,2.52 2.61,6.66 0,4.14 -2.61,6.75 -2.52,2.52 -8.37,2.52 l -10.62,0 z"
         style="font-style:normal;font-variant:normal;font-weight:normal;font-stretch:normal;font-size:90px;font-family:Phosphate;-inkscape-font-specification:Phosphate;fill:none;stroke:#000000;stroke-width:2;stroke-linecap:square;stroke-linejoin:miter;stroke-miterlimit:4;stroke-dasharray:none;stroke-opacity:1"
         id="path7085" />
      <path
         d="m 291.34369,9.97 14.4,0 22.77,60.03 -18.9,0 -1.98,-5.4 -18.18,0 -1.98,5.4 -18.9,0 22.77,-60.03 z m 11.25,41.4 -4.05,-10.53 -4.05,10.53 8.1,0 z m -20.61,11.43 1.71,-4.5 29.7,0 1.71,4.5 2.52,0 -17.37,-45.63 -3.42,0 -17.37,45.63 2.52,0 z m 16.56,-43.47 14.04,36.81 -28.08,0 14.04,-36.81 z"
         style="font-style:normal;font-variant:normal;font-weight:normal;font-stretch:normal;font-size:90px;font-family:Phosphate;-inkscape-font-specification:Phosphate;fill:none;stroke:#000000;stroke-width:2;stroke-linecap:square;stroke-linejoin:miter;stroke-miterlimit:4;stroke-dasharray:none;stroke-opacity:1"
         id="path7087" />
      <path
         d="m 332.37947,44.17 -18.63,-34.2 21.33,0 6.93,12.69 6.84,-12.69 21.33,0 -18.63,34.2 0,25.83 -19.17,0 0,-25.83 z m 10.8,18.63 0,-21.51 13.14,-24.12 -2.79,0 -11.52,21.33 -11.61,-21.33 -2.7,0 13.05,24.12 0,21.51 2.43,0 z"
         style="font-style:normal;font-variant:normal;font-weight:normal;font-stretch:normal;font-size:90px;font-family:Phosphate;-inkscape-font-specification:Phosphate;fill:none;stroke:#000000;stroke-width:2;stroke-linecap:square;stroke-linejoin:miter;stroke-miterlimit:4;stroke-dasharray:none;stroke-opacity:1"
         id="path7089" />
    </g>
    <text
       xml:space="preserve"
       style="font-style:normal;font-weight:normal;font-size:40px;line-height:125%;font-family:sans-serif;letter-spacing:0px;word-spacing:-0.04px;fill:#000000;fill-opacity:1;stroke:none;stroke-width:1px;stroke-linecap:butt;stroke-linejoin:miter;stroke-opacity:1"
       x="173.33333"
       y="24.666668"
       id="text5665"
       sodipodi:linespacing="125%"><tspan
         sodipodi:role="line"
         id="tspan5667"
         x="173.33333"
         y="24.666668" /></text>
  </g>
</svg>
