<?xml version="1.0" encoding="UTF-8" standalone="no"?>
<!-- Created with Inkscape (http://www.inkscape.org/) -->

<svg
   xmlns:dc="http://purl.org/dc/elements/1.1/"
   xmlns:cc="http://creativecommons.org/ns#"
   xmlns:rdf="http://www.w3.org/1999/02/22-rdf-syntax-ns#"
   xmlns:svg="http://www.w3.org/2000/svg"
   xmlns="http://www.w3.org/2000/svg"
   xmlns:sodipodi="http://sodipodi.sourceforge.net/DTD/sodipodi-0.dtd"
   xmlns:inkscape="http://www.inkscape.org/namespaces/inkscape"
   width="728"
   height="90"
   id="svg6509"
   version="1.1"
   inkscape:version="0.91 r13725"
   viewBox="0 0 728 90"
   sodipodi:docname="slogan.svg">
  <defs
     id="defs6511" />
  <sodipodi:namedview
     id="base"
     pagecolor="#ffffff"
     bordercolor="#666666"
     borderopacity="1.0"
     inkscape:pageopacity="0.0"
     inkscape:pageshadow="2"
     inkscape:zoom="0.75"
     inkscape:cx="545.08965"
     inkscape:cy="45"
     inkscape:document-units="px"
     inkscape:current-layer="layer1"
     showgrid="false"
     inkscape:window-width="1280"
     inkscape:window-height="703"
     inkscape:window-x="62"
     inkscape:window-y="2"
     inkscape:window-maximized="0" />
  <metadata
     id="metadata6514">
    <rdf:RDF>
      <cc:Work
         rdf:about="">
        <dc:format>image/svg+xml</dc:format>
        <dc:type
           rdf:resource="http://purl.org/dc/dcmitype/StillImage" />
        <dc:title></dc:title>
      </cc:Work>
    </rdf:RDF>
  </metadata>
  <g
     id="layer1"
     inkscape:label="Layer 1"
     inkscape:groupmode="layer">
    <g
       style="font-style:normal;font-weight:normal;font-size:40px;line-height:125%;font-family:sans-serif;letter-spacing:0px;word-spacing:-0.04px;fill:#000000;fill-opacity:1;stroke:none;stroke-width:1.5;stroke-linecap:butt;stroke-linejoin:miter;stroke-miterlimit:4;stroke-dasharray:none;stroke-opacity:1"
       id="text7057">
      <path
         d="m 129.98666,22.583332 c -6.51,9.87 -14.07,25.06 -15.68,30.8 -0.91,3.36 -0.07,5.46 0.91,6.37 0.49,0.49 0.84,0.49 1.12,-0.21 5.46,-12.81 11.41,-22.61 15.61,-30.24 1.89,-3.43 2.38,-5.74 2.31,-7.42 4.06,-0.7 8.47,-1.4 11.9,-1.05 0.91,0.07 1.05,-0.49 0.84,-1.05 -1.05,-2.73 -3.71,-3.5 -6.65,-3.57 -3.99,-0.14 -15.61,2.45 -21.84,1.96 -0.7,-0.07 -0.98,0.28 -0.77,0.91 0.77,2.59 3.78,4.13 7.98,3.99 1.26,-0.07 2.66,-0.21 4.27,-0.49 z"
         style="font-style:normal;font-variant:normal;font-weight:normal;font-stretch:normal;font-size:70px;font-family:SignPainter;-inkscape-font-specification:SignPainter;letter-spacing:4.23000097px;fill:none;stroke:#000000;stroke-width:1.5;stroke-miterlimit:4;stroke-dasharray:none;stroke-opacity:1"
         id="path7111" />
      <path
         d="m 165.38525,52.963332 c 1.05,-2.1 1.05,-3.57 0.7,-4.34 -0.28,-0.56 -0.98,-0.56 -1.26,0.07 -2.17,4.48 -6.02,9.52 -8.89,9.66 -2.59,0.14 -2.94,-3.15 -1.19,-7.21 1.61,-3.64 4.97,-8.75 6.51,-11.83 1.82,-3.57 -0.35,-7.07 -2.73,-7.35 -1.89,-0.21 -5.53,2.1 -8.4,4.9 3.01,-4.69 6.72,-10.36 8.4,-13.16 2.66,-4.41 2.87,-7.91 1.96,-9.94 -0.35,-0.84 -1.05,-0.91 -1.68,-0.07 -5.67,7.07 -20.23,31.71 -22.68,38.71 -1.47,4.2 -0.84,6.16 0.28,7.42 0.42,0.49 0.91,0.35 1.19,-0.28 1.68,-4.27 4.27,-9.17 6.79,-13.3 4.06,-6.65 11.69,-11.41 12.67,-10.85 1.12,0.63 -4.97,7.91 -7.28,14.7 -2.1,6.09 -0.63,10.36 5.25,10.36 4.13,0 8.4,-3.5 10.36,-7.49 z"
         style="font-style:normal;font-variant:normal;font-weight:normal;font-stretch:normal;font-size:70px;font-family:SignPainter;-inkscape-font-specification:SignPainter;letter-spacing:4.23000097px;fill:none;stroke:#000000;stroke-width:1.5;stroke-miterlimit:4;stroke-dasharray:none;stroke-opacity:1"
         id="path7113" />
      <path
         d="m 174.51197,47.363332 c 4.9,3.99 9.59,2.17 13.02,-2.03 2.94,-3.57 3.5,-7.84 2.24,-9.52 -1.12,-1.54 -2.38,-2.59 -4.13,-3.64 -3.5,-2.03 -10.64,1.61 -15.19,10.64 -4.55,9.03 -1.47,17.78 7.42,17.64 5.39,-0.07 10.78,-3.29 13.72,-7.56 1.26,-1.82 1.47,-3.78 1.19,-4.34 -0.28,-0.63 -0.84,-0.63 -1.19,-0.07 -3.01,4.62 -8.12,10.22 -13.93,9.94 -3.71,-0.21 -5.39,-4.62 -3.15,-11.06 z m 0.63,-1.54 c 0.14,-0.35 0.35,-0.77 0.56,-1.19 3.29,-6.65 9.1,-10.85 10.57,-9.66 0.98,0.77 -0.56,4.41 -2.8,7.35 -2.03,2.66 -4.9,5.67 -8.33,3.5 z"
         style="font-style:normal;font-variant:normal;font-weight:normal;font-stretch:normal;font-size:70px;font-family:SignPainter;-inkscape-font-specification:SignPainter;letter-spacing:4.23000097px;fill:none;stroke:#000000;stroke-width:1.5;stroke-miterlimit:4;stroke-dasharray:none;stroke-opacity:1"
         id="path7115" />
      <path
         d="m 229.34307,22.513332 c -6.16,10.01 -13.51,23.73 -15.61,29.89 -1.47,4.34 -0.77,6.58 0.56,7.7 0.49,0.42 0.91,0.42 1.19,-0.28 2.03,-4.69 4.62,-9.94 7.28,-15.12 3.99,-0.98 9.38,-2.03 12.88,-1.96 0.84,0 0.98,-0.42 0.77,-1.05 -0.63,-2.1 -2.38,-3.57 -5.88,-3.36 -1.26,0.07 -2.87,0.21 -4.69,0.56 3.43,-6.3 6.72,-11.97 9.17,-15.96 4.27,-0.63 9.17,-2.03 14.42,-1.96 0.91,0 1.05,-0.49 0.84,-1.05 -0.91,-2.17 -2.73,-3.57 -5.74,-3.57 -3.92,0 -11.34,2.03 -17.15,1.75 -0.7,0 -0.91,0.28 -0.77,0.84 0.35,1.4 1.12,2.8 2.73,3.57 z"
         style="font-style:normal;font-variant:normal;font-weight:normal;font-stretch:normal;font-size:70px;font-family:SignPainter;-inkscape-font-specification:SignPainter;letter-spacing:4.23000097px;fill:none;stroke:#000000;stroke-width:1.5;stroke-miterlimit:4;stroke-dasharray:none;stroke-opacity:1"
         id="path7117" />
      <path
         d="m 261.35197,49.953332 c -0.63,0.21 -0.91,0.7 -0.14,1.61 9.87,11.9 22.05,10.57 26.25,5.74 3.08,-3.57 3.43,-6.79 0.77,-8.68 -3.92,-2.8 -12.88,-6.51 -12.67,-11.06 0.35,-8.75 17.57,-19.46 19.95,-17.01 1.68,1.75 -3.57,7.56 -5.04,10.92 -1.47,3.29 -0.63,5.46 0.7,6.79 0.77,0.77 1.19,0.42 1.54,-0.21 0.98,-1.75 3.01,-5.32 4.83,-7.77 1.05,-1.47 2.73,-4.2 2.03,-7 -0.49,-1.96 -1.75,-4.27 -3.5,-5.88 -2.31,-2.1 -5.67,-1.54 -9.03,-0.14 -6.23,2.66 -17.08,10.85 -17.08,20.44 0,7.21 11.06,11.55 14.77,14.7 0.98,0.84 1.33,2.31 0.14,3.64 -0.91,0.77 -2.38,1.26 -4.34,1.26 -4.55,0 -9.31,-3.64 -12.11,-5.88 -1.89,-1.54 -4.76,-2.17 -7.07,-1.47 z"
         style="font-style:normal;font-variant:normal;font-weight:normal;font-stretch:normal;font-size:70px;font-family:SignPainter;-inkscape-font-specification:SignPainter;letter-spacing:4.23000097px;fill:none;stroke:#000000;stroke-width:1.5;stroke-miterlimit:4;stroke-dasharray:none;stroke-opacity:1"
         id="path7119" />
      <path
         d="m 309.04433,32.103332 c -3.01,5.53 -5.95,11.41 -7.42,14.91 -3.36,8.05 0.35,13.23 4.97,13.37 5.6,0.21 10.22,-5.95 11.13,-7.98 0.7,-1.61 1.05,-2.87 0.7,-3.99 -0.28,-0.98 -1.05,-0.84 -1.47,0 -2.59,5.25 -6.58,10.22 -9.73,10.08 -2.94,-0.14 -3.71,-4.48 -1.4,-9.59 2.66,-5.88 6.65,-12.67 9.38,-17.36 1.75,-0.28 3.92,-0.49 5.46,-0.28 1.05,0 1.33,-0.49 0.84,-1.33 -0.56,-0.91 -1.61,-2.17 -4.34,-2.1 1.68,-3.64 1.68,-5.95 0.91,-7.91 -0.35,-0.84 -1.05,-0.91 -1.68,0 -1.19,1.54 -3.15,4.83 -5.32,8.68 -1.89,0.21 -3.85,0.35 -5.81,0.28 -1.05,-0.07 -1.47,0.42 -0.77,1.4 0.56,0.77 2.17,1.82 4.55,1.82 z"
         style="font-style:normal;font-variant:normal;font-weight:normal;font-stretch:normal;font-size:70px;font-family:SignPainter;-inkscape-font-specification:SignPainter;letter-spacing:4.23000097px;fill:none;stroke:#000000;stroke-width:1.5;stroke-miterlimit:4;stroke-dasharray:none;stroke-opacity:1"
         id="path7121" />
      <path
         d="m 342.24339,36.583332 c 0.14,-2.73 -1.26,-5.04 -4.27,-5.04 -3.5,0 -9.03,3.15 -14.7,11.41 -5.81,8.47 -4.48,17.36 2.03,17.36 3.36,0 6.51,-2.59 8.75,-5.46 0,3.29 1.96,5.53 5.74,5.74 3.85,0.21 8.26,-3.64 10.08,-7.49 0.91,-1.96 0.91,-3.71 0.63,-4.34 -0.28,-0.63 -0.77,-0.56 -1.12,0.07 -2.45,4.83 -6.3,9.59 -9.17,9.73 -2.38,0.14 -2.31,-2.87 -0.56,-6.79 1.68,-3.71 5.18,-8.96 6.72,-12.11 1.68,-3.5 1.12,-6.51 0.07,-7.77 -0.49,-0.63 -1.05,-0.49 -1.68,0.42 -0.77,1.12 -1.61,2.59 -2.52,4.27 z m -6.09,10.85 c -3.57,6.16 -7.21,10.64 -10.08,10.57 -2.73,-0.07 -1.82,-6.23 1.89,-12.25 3.85,-6.23 8.96,-10.78 11.2,-10.57 2.03,0.21 1.4,4.55 -3.01,12.25 z"
         style="font-style:normal;font-variant:normal;font-weight:normal;font-stretch:normal;font-size:70px;font-family:SignPainter;-inkscape-font-specification:SignPainter;letter-spacing:4.23000097px;fill:none;stroke:#000000;stroke-width:1.5;stroke-miterlimit:4;stroke-dasharray:none;stroke-opacity:1"
         id="path7123" />
      <path
         d="m 363.5676,38.753332 c 0.77,-2.52 0.84,-4.9 -0.21,-6.65 -0.42,-0.7 -0.98,-0.77 -1.47,0 -4.41,6.51 -9.8,16.24 -11.2,20.65 -1.12,3.5 -0.7,5.81 0.7,7.21 0.63,0.63 1.05,0.35 1.33,-0.28 3.01,-6.58 6.09,-13.3 10.22,-17.78 4.48,-4.9 8.54,-6.86 9.24,-6.58 1.26,0.56 -4.9,7.98 -7.21,14.84 -2.03,6.09 -0.63,10.43 5.32,10.43 4.06,0 8.47,-3.57 10.36,-7.49 0.98,-2.03 1.12,-3.64 0.63,-4.41 -0.35,-0.56 -0.84,-0.56 -1.19,0.07 -2.66,4.9 -6.09,9.52 -8.96,9.66 -2.52,0.14 -2.94,-3.15 -1.12,-7.21 1.61,-3.64 5.04,-8.82 6.51,-11.9 1.75,-3.64 -0.42,-7.07 -2.73,-7.42 -2.31,-0.35 -7.07,3.5 -10.22,6.86 z"
         style="font-style:normal;font-variant:normal;font-weight:normal;font-stretch:normal;font-size:70px;font-family:SignPainter;-inkscape-font-specification:SignPainter;letter-spacing:4.23000097px;fill:none;stroke:#000000;stroke-width:1.5;stroke-miterlimit:4;stroke-dasharray:none;stroke-opacity:1"
         id="path7125" />
      <path
         d="m 402.92119,51.773332 c 3.5,-7.42 10.22,-18.97 13.58,-24.99 2.94,-5.25 3.15,-8.26 2.17,-10.57 -0.35,-0.91 -0.98,-0.98 -1.68,0 -2.52,3.57 -7.84,13.09 -11.62,20.3 0.07,-2.59 -1.33,-4.76 -4.2,-4.76 -3.5,0 -9.1,3.15 -14.63,11.27 -5.74,8.4 -4.48,17.29 2.03,17.29 3.29,0 6.44,-2.59 8.68,-5.39 0,3.29 1.89,5.39 5.67,5.6 3.85,0.21 8.19,-3.5 10.08,-7.35 0.91,-1.89 0.84,-3.71 0.56,-4.34 -0.28,-0.56 -0.77,-0.56 -1.12,0.07 -2.45,4.83 -6.23,9.52 -9.1,9.66 -2.38,0.14 -2.31,-2.73 -0.42,-6.79 z m -0.63,-16.45 c 2.03,0.07 0.98,4.48 -3.08,12.25 -3.29,6.37 -7.07,10.5 -9.87,10.43 -2.73,-0.07 -1.96,-6.16 1.82,-12.18 3.85,-6.16 8.96,-10.57 11.13,-10.5 z"
         style="font-style:normal;font-variant:normal;font-weight:normal;font-stretch:normal;font-size:70px;font-family:SignPainter;-inkscape-font-specification:SignPainter;letter-spacing:4.23000097px;fill:none;stroke:#000000;stroke-width:1.5;stroke-miterlimit:4;stroke-dasharray:none;stroke-opacity:1"
         id="path7127" />
      <path
         d="m 418.51854,47.853332 c -0.07,-0.56 -0.07,-1.12 -0.14,-1.68 -0.07,-1.12 -0.63,-1.4 -1.47,-0.7 -2.38,1.96 -2.59,6.58 -0.91,9.73 2.38,4.34 6.3,5.39 10.36,5.25 4.97,-0.21 9.73,-2.87 12.39,-7.7 1.19,-2.17 1.26,-3.99 0.98,-4.62 -0.28,-0.56 -0.98,-0.77 -1.33,0 -1.75,3.78 -4.69,7.98 -9.38,9.73 2.52,-1.68 3.01,-4.62 3.15,-7.35 0.21,-4.83 -1.12,-10.29 -0.63,-16.73 0.28,-0.49 0.49,-0.91 0.77,-1.33 0.91,-1.61 1.26,-2.38 0.56,-3.08 -0.63,-0.63 -2.24,-0.35 -3.78,1.05 -1.47,1.33 -2.17,2.66 -2.52,5.39 -2.03,3.57 -5.18,8.12 -8.05,12.04 z m 7.91,-7.56 c 0.28,5.6 1.33,16.59 -1.89,17.57 -2.31,0.7 -4.34,-2.17 -5.39,-6.23 2.66,-3.78 5.25,-7.63 7.28,-11.34 z"
         style="font-style:normal;font-variant:normal;font-weight:normal;font-stretch:normal;font-size:70px;font-family:SignPainter;-inkscape-font-specification:SignPainter;letter-spacing:4.23000097px;fill:none;stroke:#000000;stroke-width:1.5;stroke-miterlimit:4;stroke-dasharray:none;stroke-opacity:1"
         id="path7129" />
      <path
         d="m 475.82918,22.513332 c -6.16,10.01 -13.51,23.73 -15.61,29.89 -1.47,4.34 -0.77,6.58 0.56,7.7 0.49,0.42 0.91,0.42 1.19,-0.28 2.03,-4.69 4.62,-9.94 7.28,-15.12 3.99,-0.98 9.38,-2.03 12.88,-1.96 0.84,0 0.98,-0.42 0.77,-1.05 -0.63,-2.1 -2.38,-3.57 -5.88,-3.36 -1.26,0.07 -2.87,0.21 -4.69,0.56 3.43,-6.3 6.72,-11.97 9.17,-15.96 4.27,-0.63 9.17,-2.03 14.42,-1.96 0.91,0 1.05,-0.49 0.84,-1.05 -0.91,-2.17 -2.73,-3.57 -5.74,-3.57 -3.92,0 -11.34,2.03 -17.15,1.75 -0.7,0 -0.91,0.28 -0.77,0.84 0.35,1.4 1.12,2.8 2.73,3.57 z"
         style="font-style:normal;font-variant:normal;font-weight:normal;font-stretch:normal;font-size:70px;font-family:SignPainter;-inkscape-font-specification:SignPainter;letter-spacing:4.23000097px;fill:none;stroke:#000000;stroke-width:1.5;stroke-miterlimit:4;stroke-dasharray:none;stroke-opacity:1"
         id="path7131" />
      <path
         d="m 533.69448,53.383332 c 0.84,-1.82 0.56,-3.71 0.21,-4.55 -0.28,-0.63 -0.77,-0.49 -1.05,0.14 -2.24,5.11 -5.81,9.8 -8.61,9.59 -2.24,-0.14 -3.08,-2.87 -1.75,-6.72 1.26,-3.71 4.62,-8.47 7.91,-12.18 2.1,-2.38 0.35,-5.67 -0.91,-7.14 -0.56,-0.7 -1.19,-0.49 -2.1,0.14 -2.66,1.82 -5.11,3.01 -7.56,3.36 1.4,-3.71 2.66,-8.82 0.21,-8.75 -2.8,0.07 -9.66,9.31 -4.48,11.55 -1.47,2.66 -3.5,3.99 -5.46,4.34 0,-0.42 0.14,-0.77 0.14,-1.12 0.35,-5.11 -1.68,-5.53 -3.36,-7.7 -1.47,-1.89 -2.59,-2.59 -4.69,-2.38 -4.2,0.35 -8.61,4.27 -11.27,9.1 -3.01,5.53 -4.06,11.62 -1.05,15.75 2.73,3.71 6.37,3.85 8.89,3.01 5.18,-1.68 9.52,-8.89 10.92,-14.84 3.85,-0.14 6.72,-2.52 8.68,-5.67 2.24,0 5.32,-0.7 8.47,-2.73 -2.94,3.43 -7.35,8.61 -8.75,13.3 -1.75,5.74 0.42,10.43 5.81,10.71 3.85,0.21 7.91,-3.01 9.8,-7.21 z m -27.93,-11.34 c -1.33,-1.12 -1.96,-2.87 -1.75,-4.62 0.28,-2.03 1.82,-2.59 2.1,-0.28 0.14,1.19 0.07,2.87 -0.35,4.9 z m -0.63,2.03 c -0.49,1.75 -1.33,3.64 -2.45,5.74 -3.5,6.37 -7.84,8.89 -9.66,7.28 -1.82,-1.61 -0.84,-7.98 2.17,-13.3 1.54,-2.66 3.5,-4.97 5.39,-6.58 0.07,2.52 1.82,5.32 4.55,6.86 z"
         style="font-style:normal;font-variant:normal;font-weight:normal;font-stretch:normal;font-size:70px;font-family:SignPainter;-inkscape-font-specification:SignPainter;letter-spacing:4.23000097px;fill:none;stroke:#000000;stroke-width:1.5;stroke-miterlimit:4;stroke-dasharray:none;stroke-opacity:1"
         id="path7133" />
      <path
         d="m 575.15059,22.513332 c -6.16,10.01 -13.51,23.73 -15.61,29.89 -1.47,4.34 -0.77,6.58 0.56,7.7 0.49,0.42 0.91,0.42 1.19,-0.28 2.03,-4.69 4.62,-9.94 7.28,-15.12 3.99,-0.98 9.38,-2.03 12.88,-1.96 0.84,0 0.98,-0.42 0.77,-1.05 -0.63,-2.1 -2.38,-3.57 -5.88,-3.36 -1.26,0.07 -2.87,0.21 -4.69,0.56 3.43,-6.3 6.72,-11.97 9.17,-15.96 4.27,-0.63 9.17,-2.03 14.42,-1.96 0.91,0 1.05,-0.49 0.84,-1.05 -0.91,-2.17 -2.73,-3.57 -5.74,-3.57 -3.92,0 -11.34,2.03 -17.15,1.75 -0.7,0 -0.91,0.28 -0.77,0.84 0.35,1.4 1.12,2.8 2.73,3.57 z"
         style="font-style:normal;font-variant:normal;font-weight:normal;font-stretch:normal;font-size:70px;font-family:SignPainter;-inkscape-font-specification:SignPainter;letter-spacing:4.23000097px;fill:none;stroke:#000000;stroke-width:1.5;stroke-miterlimit:4;stroke-dasharray:none;stroke-opacity:1"
         id="path7135" />
      <path
         d="m 599.99557,53.663332 c -0.56,4.06 1.26,6.93 5.81,6.93 4.13,0 8.47,-3.57 10.5,-7.49 0.98,-1.96 0.91,-3.85 0.63,-4.41 -0.28,-0.63 -0.91,-0.56 -1.26,0.07 -2.73,4.9 -6.3,9.52 -9.24,9.66 -2.52,0.14 -2.8,-2.8 -0.98,-6.79 1.61,-3.57 5.11,-8.82 6.65,-11.97 1.68,-3.5 1.12,-6.58 0.07,-7.84 -0.56,-0.7 -1.05,-0.56 -1.75,0.42 -2.24,3.01 -4.27,7.84 -8.68,14.98 -3.78,6.09 -7.63,10.99 -10.36,10.78 -1.61,-0.14 -1.82,-2.66 -0.35,-6.09 1.47,-3.36 2.87,-6.16 5.46,-10.29 2.52,-3.99 2.87,-7.14 1.33,-9.45 -0.56,-0.63 -1.26,-0.7 -1.82,0.07 -4.55,6.37 -8.12,13.23 -9.66,17.85 -1.54,4.62 -1.4,9.8 3.57,10.15 3.92,0.28 7.63,-3.29 10.08,-6.58 z"
         style="font-style:normal;font-variant:normal;font-weight:normal;font-stretch:normal;font-size:70px;font-family:SignPainter;-inkscape-font-specification:SignPainter;letter-spacing:4.23000097px;fill:none;stroke:#000000;stroke-width:1.5;stroke-miterlimit:4;stroke-dasharray:none;stroke-opacity:1"
         id="path7137" />
      <path
         d="m 630.00637,38.753332 c 0.77,-2.52 0.84,-4.9 -0.21,-6.65 -0.42,-0.7 -0.98,-0.77 -1.47,0 -4.41,6.51 -9.8,16.24 -11.2,20.65 -1.12,3.5 -0.7,5.81 0.7,7.21 0.63,0.63 1.05,0.35 1.33,-0.28 3.01,-6.58 6.09,-13.3 10.22,-17.78 4.48,-4.9 8.54,-6.86 9.24,-6.58 1.26,0.56 -4.9,7.98 -7.21,14.84 -2.03,6.09 -0.63,10.43 5.32,10.43 4.06,0 8.47,-3.57 10.36,-7.49 0.98,-2.03 1.12,-3.64 0.63,-4.41 -0.35,-0.56 -0.84,-0.56 -1.19,0.07 -2.66,4.9 -6.09,9.52 -8.96,9.66 -2.52,0.14 -2.94,-3.15 -1.12,-7.21 1.61,-3.64 5.04,-8.82 6.51,-11.9 1.75,-3.64 -0.42,-7.07 -2.73,-7.42 -2.31,-0.35 -7.07,3.5 -10.22,6.86 z"
         style="font-style:normal;font-variant:normal;font-weight:normal;font-stretch:normal;font-size:70px;font-family:SignPainter;-inkscape-font-specification:SignPainter;letter-spacing:4.23000097px;fill:none;stroke:#000000;stroke-width:1.5;stroke-miterlimit:4;stroke-dasharray:none;stroke-opacity:1"
         id="path7139" />
      <path
         d="m 674.88994,16.283332 c -5.25,7.7 -12.25,21.56 -15.05,29.05 -1.54,4.2 -0.84,6.51 0.21,7.63 0.56,0.56 0.84,0.42 1.19,-0.28 3.57,-7.77 9.45,-18.76 13.3,-25.69 2.87,-5.18 3.01,-8.61 2.1,-10.57 -0.42,-0.98 -1.19,-0.98 -1.75,-0.14 z m -15.75,39.41 c -0.91,-1.96 -2.94,-2.73 -3.99,-1.61 -1.12,1.19 -1.47,3.29 -0.35,5.11 0.98,1.61 3.01,2.03 3.85,0.98 0.77,-0.98 1.26,-2.87 0.49,-4.48 z"
         style="font-style:normal;font-variant:normal;font-weight:normal;font-stretch:normal;font-size:70px;font-family:SignPainter;-inkscape-font-specification:SignPainter;letter-spacing:4.23000097px;fill:none;stroke:#000000;stroke-width:1.5;stroke-miterlimit:4;stroke-dasharray:none;stroke-opacity:1"
         id="path7141" />
    </g>
  </g>
</svg>
